<svg width="1024" height="1024"  xmlns="http://www.w3.org/2000/svg">
	<rect x="0" y="0" rx="16" ry="16" style="fill: red;stroke: black;strokeSidth: 5;opacity: 0.5" width="512" height="64" />
	<rect x="448" y="0" rx="16" ry="16" style="fill: red;stroke: black;strokeSidth: 5;opacity: 0.5" width="64" height="1024" />
	<rect x="0" y="960" rx="16" ry="16" style="fill: red;stroke: black;strokeSidth: 5;opacity: 0.5" width="512" height="64" />
	<rect x="0" y="512" rx="16" ry="16" style="fill: red;stroke: black;strokeSidth: 5;opacity: 0.5" width="64" height="512" />
	<rect x="0" y="512" rx="16" ry="16" style="fill: red;stroke: black;strokeSidth: 5;opacity: 0.5" width="512" height="64" />
	<rect x="512" y="448" rx="16" ry="16" style="fill: red;stroke: black;strokeSidth: 5;opacity: 0.5" width="512" height="64" />
	<rect x="960" y="512" rx="16" ry="16" style="fill: red;stroke: black;strokeSidth: 5;opacity: 0.5" width="64" height="246" />
	<rect x="768" y="512" rx="16" ry="16" style="fill: red;stroke: black;strokeSidth: 5;opacity: 0.5" width="256" height="64" />
	<rect x="512" y="448" rx="16" ry="16" style="fill: red;stroke: black;strokeSidth: 5;opacity: 0.5" width="512" height="64" />
	<rect x="960" y="0" rx="16" ry="16" style="fill: red;stroke: black;strokeSidth: 5;opacity: 0.5" width="64" height="512" />
	<rect x="512" y="0" rx="16" ry="16" style="fill: red;stroke: black;strokeSidth: 5;opacity: 0.5" width="512" height="64" />
	<rect x="512" y="0" rx="16" ry="16" style="fill: red;stroke: black;strokeSidth: 5;opacity: 0.5" width="64" height="768" />
	<rect x="512" y="704" rx="16" ry="16" style="fill: red;stroke: black;strokeSidth: 5;opacity: 0.5" width="512" height="64" />
	<rect x="768" y="512" rx="16" ry="16" style="fill: red;stroke: black;strokeSidth: 5;opacity: 0.5" width="64" height="512" />
	<rect x="512" y="960" rx="16" ry="16" style="fill: red;stroke: black;strokeSidth: 5;opacity: 0.5" width="256" height="64" />
	<rect x="512" y="768" rx="16" ry="16" style="fill: red;stroke: black;strokeSidth: 5;opacity: 0.5" width="64" height="256" />
	<rect x="512" y="768" rx="16" ry="16" style="fill: red;stroke: black;strokeSidth: 5;opacity: 0.5" width="512" height="64" />
	<rect x="960" y="768" rx="16" ry="16" style="fill: red;stroke: black;strokeSidth: 5;opacity: 0.5" width="64" height="256" />
</svg>
